<svg id="logos" xmlns="http://www.w3.org/2000/svg" viewBox="0 0 349.45 88.53"><defs><style>.cls-1{fill:#071b4e;}</style></defs><path class="cls-1" d="M102.44,62.63l6.14,0c1.16,0,2.33,0,3.49,0a.64.64,0,0,1,.7.47q3.77,8.36,7.55,16.71c.08.18.17.35.3.63l.28-.57q3.78-8.35,7.55-16.71a.75.75,0,0,1,.81-.53c3,0,5.92,0,8.88,0h.59v24.2h-6V67.73l-.1,0-.24.46q-4.29,9.11-8.56,18.22a.75.75,0,0,1-.81.52c-1.62,0-3.23,0-4.85,0a.7.7,0,0,1-.74-.47q-4.28-9.17-8.57-18.33a1.29,1.29,0,0,0-.29-.44V86.89h-6.12Z"/><path class="cls-1" d="M184.05,62.65h22.42a11.87,11.87,0,0,1,3.88.55,5.86,5.86,0,0,1,4.2,5.34,6,6,0,0,1-2.11,5.53,10.54,10.54,0,0,1-1.16.74,1,1,0,0,0,.17.14,6.23,6.23,0,0,1,3.09,6.37,5.84,5.84,0,0,1-4.68,5.15,12.17,12.17,0,0,1-3,.4c-7.47,0-14.94,0-22.41,0l-.4,0Zm6.08,19.15.48,0h15.26a5.48,5.48,0,0,0,.7,0,2.31,2.31,0,0,0,2.2-2.34,2.2,2.2,0,0,0-2.12-2.37,4.79,4.79,0,0,0-.85-.06H190.13Zm0-9.31.33,0h15.67a3.6,3.6,0,0,0,1.2-.27,2.21,2.21,0,0,0,1.44-2.46,2.1,2.1,0,0,0-1.86-2,5.51,5.51,0,0,0-1-.08q-7.64,0-15.27,0l-.52,0Z"/><path class="cls-1" d="M161.89,87.69c-4,0-7.45-.66-10.53-2.51a11.75,11.75,0,0,1-6-8.26c-.83-4.83.86-8.73,4.7-11.7a16.54,16.54,0,0,1,8.29-3.17,22.37,22.37,0,0,1,9.62.78,13.55,13.55,0,0,1,8.29,6.52,11.72,11.72,0,0,1-3.65,15.05,17.18,17.18,0,0,1-8.11,3.08C163.49,87.61,162.44,87.65,161.89,87.69Zm-.5-5.18a12,12,0,0,0,5.83-1.26,7.24,7.24,0,0,0,.57-12.63,10.7,10.7,0,0,0-5.1-1.54,12.8,12.8,0,0,0-7.08,1.21A7.23,7.23,0,0,0,155,80.94,11.74,11.74,0,0,0,161.39,82.51Z"/><path class="cls-1" d="M313.94,62.68l.57,0c2.06,0,4.12,0,6.19,0a.91.91,0,0,1,.79.38q4.27,5.15,8.57,10.27l.27.29,2.89-3.51c1.92-2.34,3.85-4.67,5.76-7a1,1,0,0,1,.89-.41c2.11,0,4.22,0,6.34,0h.6l-.39.49q-6.29,7.53-12.59,15a1.74,1.74,0,0,0-.45,1.25c0,2.28,0,4.56,0,6.84v.58h-6v-.54c0-2.25,0-4.49,0-6.74a1.5,1.5,0,0,0-.39-1q-6.33-7.68-12.64-15.38C314.21,63,314.11,62.89,313.94,62.68Z"/><path class="cls-1" d="M293,67.9H282.07V62.68h27.78v5.19H299v19H293Z"/><path class="cls-1" d="M241.11,81.66h21.47v5.19H235.07V62.7h6Z"/><path class="cls-1" d="M221.37,86.86V62.69h6V86.86Z"/><path class="cls-1" d="M275.44,86.87h-6V62.7h6Z"/><path class="cls-1" d="M132.88,32.8l-5.71-14.6-5.79,14.6ZM120.43,1.35h13.7L156,53H140.72L137,43.86H117.2L113.54,53h-15Z"/><polygon class="cls-1" points="164.32 14.18 148.93 14.18 148.93 1.71 193.93 1.71 193.93 14.18 178.55 14.18 178.55 53.02 164.32 53.02 164.32 14.18"/><polygon class="cls-1" points="201.5 1.71 215.72 1.71 215.72 40.56 240.56 40.56 240.56 53.02 201.5 53.02 201.5 1.71"/><path class="cls-1" d="M279,32.8l-5.73-14.6-5.79,14.6ZM266.58,1.35h13.69L302.12,53H286.87l-3.73-9.16H263.35L259.69,53h-15Z"/><path class="cls-1" d="M304.67,45.4l7.91-9.46a26.45,26.45,0,0,0,16.65,6.16c3.8,0,5.85-1.32,5.85-3.51v-.15c0-2.13-1.68-3.3-8.64-4.92C315.51,31,307.09,28,307.09,17.4v-.15C307.09,7.73,314.64.84,327,.84c8.73,0,15.54,2.34,21.11,6.82l-7.12,10a25.66,25.66,0,0,0-14.36-5.06c-3.43,0-5.13,1.47-5.13,3.3v.15c0,2.34,1.76,3.36,8.88,5,11.79,2.57,19.12,6.37,19.12,16v.15c0,10.47-8.28,16.7-20.74,16.7-9.09,0-17.74-2.86-24-8.5"/><path class="cls-1" d="M44.28,0A44.27,44.27,0,1,1,0,44.26,44.33,44.33,0,0,1,44.28,0ZM86,45H69.56A70.13,70.13,0,0,1,65.7,67.57c9.34-.84,14.57-2.1,15-2.92l.25-.44A42.68,42.68,0,0,0,86,45Zm-16.4-2.29H85.94A41.47,41.47,0,0,0,81,24h-.07l-.13-.25c-.47-.52-5.24-1.52-14.74-2.19A68.25,68.25,0,0,1,69.55,42.72Zm1.27-22.78A62.14,62.14,0,0,1,79.3,21.2a41.76,41.76,0,0,0-25.62-18c4.73,3.32,8.78,9.07,11.6,16.34C67.24,19.63,69.1,19.77,70.82,19.94ZM79,67.47a56.39,56.39,0,0,1-10,1.78c-1.27.14-2.64.27-4.07.38-2.81,7-6.72,12.49-11.27,15.74A41.9,41.9,0,0,0,79,67.47ZM45.25,42.72H67.59a66.91,66.91,0,0,0-3.66-21.34c-5-.31-11.25-.52-18.68-.54ZM67.59,45H45.25V68.43c7.11,0,13.25-.29,18.34-.68A68.44,68.44,0,0,0,67.59,45ZM63.17,19.37C59.31,9.83,53.28,3.27,46.42,2.13l-1.16,0V18.87C51.65,18.89,57.76,19.06,63.17,19.37Zm-16.77,67C53,85.28,58.91,79,62.78,69.8c-5.4.38-11.56.6-17.54.63v16C45.63,86.43,46,86.43,46.4,86.41ZM43.29,18.87V2.1c-.39,0-.79,0-1.17,0-6.86,1.14-12.89,7.7-16.75,17.23C30.78,19.05,36.91,18.89,43.29,18.87Zm0,23.85V20.84c-7.28,0-13.53.22-18.67.54A66.57,66.57,0,0,0,21,42.71Zm0,25.71V45H21a68.19,68.19,0,0,0,4,22.74C30,68.14,36.17,68.4,43.28,68.43Zm0,18v-16H41.72c-5.48-.06-11-.28-16-.63C29.61,79,35.47,85.27,42.1,86.41,42.49,86.43,42.88,86.43,43.28,86.44Zm-8.43-1.07c-4.54-3.25-8.44-8.78-11.24-15.74-1.43-.12-2.8-.25-4.07-.38a56.16,56.16,0,0,1-10-1.79A41.82,41.82,0,0,0,34.85,85.37ZM23.28,19.49c2.82-7.27,6.87-13,11.61-16.34a41.79,41.79,0,0,0-25.64,18,62.55,62.55,0,0,1,8.48-1.25C19.45,19.76,21.31,19.62,23.28,19.49Zm-.45,48.08A70.16,70.16,0,0,1,19,45H2.6a42.6,42.6,0,0,0,5,19.23l.25.45a.21.21,0,0,1,0,.06C8.45,65.53,13.65,66.75,22.83,67.57ZM19,42.71a68.54,68.54,0,0,1,3.55-21.2c-9.1.64-14.21,1.6-14.75,2.25L7.64,24H7.56a41.44,41.44,0,0,0-5,18.7Z"/></svg>