<svg xmlns="http://www.w3.org/2000/svg" viewBox="0 0 342 35" fill="#171a20">
  <path d="M0 .1a9.7 9.7 0 0 0 4.8 1.3c3.6.2 7.2-.5 10.7-1.6 2.6.8 5.2 1.3 7.8 1.6V7c-3-.3-5.8-.8-8.6-1.6C11.6 6.5 8.3 7 5.3 7V3.6c-1.8 0-3.6-.3-5.3-.8V.1zM28.2.1c3.5 1 6.2 1.4 10.2 1.4 4 0 6.7-.4 10.2-1.4v2.7c-1.7.5-3.5.8-5.3.8V7c-3-.1-6.3-.6-9.5-1.6-2.8.8-5.5 1.3-8.5 1.6V1.4c2.6-.3 5.2-.8 7.8-1.6h-5zM24.4 3.7V7c-3.7.2-7.2-.1-10.6-1.2-3.5 1.1-7 1.5-10.6 1.2V3.7C7 4.4 11 4.5 14.8 3.5l2.6-.7c4.6 1.2 8.4 1.3 12.3.8z"/>
  <text x="50" y="28" font-family="Inter, Helvetica, Arial, sans-serif" font-weight="700" font-size="28" letter-spacing=".2em">TESLA</text>
</svg>
